<?xml version="1.0"?>
<svg xmlns="http://www.w3.org/2000/svg" viewBox="0 0 512 512" width="512" height="512"><g id="Fill_out_line" data-name="Fill out line"><path d="M200,176,384,440,200,496H16V432l40-40V280l9.6001-64L75.2,152,80,120a56.0032,56.0032,0,0,1,56,56Z" style="fill:#fdc5ca"/><rect x="136" y="24" width="240" height="464" rx="16" ry="16" style="fill:#68737f"/><rect x="136" y="88" width="240" height="336" rx="16" ry="16" style="fill:#d4e4f0"/><path d="M104,176v40H65.6001L75.2,152H80A24.03189,24.03189,0,0,1,104,176Z" style="fill:#d4e4f0"/><path d="M440,432a32,32,0,1,1-64,0V368a64.05518,64.05518,0,0,1,54.62988,30.62988,62.90278,62.90278,0,0,1,4.87012,9.75A63.88458,63.88458,0,0,1,440,432Z" style="fill:#fdc5ca"/><path d="M440,376a32,32,0,1,1-64,0V312a64.05518,64.05518,0,0,1,54.62988,30.62988,62.90278,62.90278,0,0,1,4.87012,9.75A63.88458,63.88458,0,0,1,440,376Z" style="fill:#fdc5ca"/><path d="M440,320a32,32,0,1,1-64,0V256a64.05518,64.05518,0,0,1,54.62988,30.62988,62.90278,62.90278,0,0,1,4.87012,9.75A63.88458,63.88458,0,0,1,440,320Z" style="fill:#fdc5ca"/><path d="M440,264a32,32,0,1,1-64,0V200a63.98234,63.98234,0,0,1,64,64Z" style="fill:#fdc5ca"/><circle cx="312" cy="56" r="8"/><circle cx="344" cy="56" r="8"/><rect x="224" y="48" width="64" height="16"/><rect x="224" y="448" width="64" height="16"/><path d="M256,312a96,96,0,1,0-67.88281-163.88281l11.31445,11.31445A79.99676,79.99676,0,1,1,176.39648,224H200a7.99873,7.99873,0,0,0,7.42773-5.0293l7.13477-17.83691,17.71973,64.9707A7.99946,7.99946,0,0,0,239.99805,272c.06347,0,.12793-.001.19238-.002a8.00039,8.00039,0,0,0,7.61914-6.2627l11.11231-50.0039,13.92285,27.84667a8.00067,8.00067,0,0,0,14.74511-1.04785L293.76562,224H320V208H288a8.00026,8.00026,0,0,0-7.58984,5.46973l-1.89161,5.67773-15.36328-30.72558a7.99989,7.99989,0,0,0-14.96484,1.84277l-8.9834,40.42383-15.48926-56.793a7.99933,7.99933,0,0,0-15.1455-.86621L194.584,208H168a8.00039,8.00039,0,0,0-8,8A96.10874,96.10874,0,0,0,256,312Z"/><rect x="304" y="336" width="32" height="16"/><rect x="304" y="368" width="32" height="16"/><rect x="176" y="336" width="80" height="16"/><rect x="176" y="368" width="80" height="16"/><path d="M440.2876,287.57324A39.7764,39.7764,0,0,0,448,264a72.095,72.095,0,0,0-64-71.54492V40a24.0275,24.0275,0,0,0-24-24H152a24.0275,24.0275,0,0,0-24,24v93.73535A63.84971,63.84971,0,0,0,80,112a7.99955,7.99955,0,0,0-7.91113,6.81348l-24,160A7.90678,7.90678,0,0,0,48,280V388.68555L18.34277,418.34277l11.31446,11.31446L56,403.31445l18.34277,18.34278,11.31446-11.31446L64,388.68652V280.59668L72.4895,224H104a8.00039,8.00039,0,0,0,8-8V176a32.04389,32.04389,0,0,0-27.55762-31.68457l2.375-15.833A48.073,48.073,0,0,1,128,176v56H104v16h24V472a24.0275,24.0275,0,0,0,24,24H360a24.0275,24.0275,0,0,0,24-24v-8.022A39.97806,39.97806,0,0,0,448,432a71.93658,71.93658,0,0,0-7.7124-32.42676A39.7764,39.7764,0,0,0,448,376a71.92977,71.92977,0,0,0-7.7124-32.42627A39.77958,39.77958,0,0,0,448,320,71.93658,71.93658,0,0,0,440.2876,287.57324ZM96,176v32H74.88965l7.17773-47.85083A16.0132,16.0132,0,0,1,96,176ZM432,376a24,24,0,0,1-48,0V351.978a39.88707,39.88707,0,0,0,43.80835,2.751A56.00985,56.00985,0,0,1,432,376Zm-48-80.022a39.88607,39.88607,0,0,0,43.80859,2.75049A56.02214,56.02214,0,0,1,432,320a24,24,0,0,1-48,0ZM432,264a24,24,0,0,1-48,0V208.58057A56.07868,56.07868,0,0,1,432,264ZM152,32H360a8.00917,8.00917,0,0,1,8,8V81.37622A23.88238,23.88238,0,0,0,360,80H152a23.88238,23.88238,0,0,0-8,1.37622V40A8.00917,8.00917,0,0,1,152,32Zm-8,72a8.00917,8.00917,0,0,1,8-8H360a8.00917,8.00917,0,0,1,8,8V408a8.00917,8.00917,0,0,1-8,8H152a8.00917,8.00917,0,0,1-8-8ZM368,472a8.00917,8.00917,0,0,1-8,8H152a8.00917,8.00917,0,0,1-8-8V430.624A23.89427,23.89427,0,0,0,152,432H360a23.89427,23.89427,0,0,0,8-1.376Zm40-16a24.0275,24.0275,0,0,1-24-24V407.978a39.88607,39.88607,0,0,0,43.80859,2.75049A56.02214,56.02214,0,0,1,432,432,24.0275,24.0275,0,0,1,408,456Z"/></g></svg>
